# xmcd
#
# Track frame offsets:
#	150
#	26817
#	46367
#	64197
#	84677
#	105445
#	117085
#	140500
#	157392
#	184420
#
# Disc length: 2796 seconds
#
# Revision: 1
# Processed by: cddbd v1.5.1PL0 Copyright (c) Steve Scherf et al.
# Submitted via: audiograbber 1.83.01
#
DISCID=8f0aea0a
DTITLE=3 Below - Adventurer Powered
DYEAR=1992
DGENRE=Blues
TTITLE0=Medicine Man
TTITLE1=Cinnamon
TTITLE2=Shot Of Love
TTITLE3=Steamtrain
TTITLE4=Easy Come, Easy Go
TTITLE5=Dancin' With Gene
TTITLE6=Just Like Candy
TTITLE7=I Wanna Be Your Dog
TTITLE8=Bulletproof
TTITLE9=Power Of Love
EXTD=
EXTT0=
EXTT1=
EXTT2=
EXTT3=
EXTT4=
EXTT5=
EXTT6=
EXTT7=
EXTT8=
EXTT9=
PLAYORDER=
